<?xml version="1.0" encoding="utf-8"?>
<!DOCTYPE svg PUBLIC "-//W3C//DTD SVG 1.1//EN" "http://www.w3.org/Graphics/SVG/1.1/DTD/svg11.dtd">
<svg width="570" height="569" viewBox="0 0 570 569" xmlns="http://www.w3.org/2000/svg" xmlns:xlink="http://www.w3.org/1999/xlink">
        <svg xmlns='http://www.w3.org/2000/svg' version='1.1' width='9' height='8' viewBox='-16 -12 32 24' id="arrow-down" x="0" y="0"><polygon points='-16,-9 16,-9 0,12' style='fill:#aaa;'></polygon></svg>
        <svg xmlns='http://www.w3.org/2000/svg' version='1.1' width='9' height='8' viewBox='-16 -12 32 24' id="arrow-up" x="9" y="0"><polygon points='-16,9 16,9 0,-12' style='fill:#aaa;'></polygon></svg>
        <svg xmlns="http://www.w3.org/2000/svg" version="1.1" viewBox="-2 -2 20 15" width="20" height="15" id="us-flag" x="0" y="8"><defs><style>.gpcls-1{fill:#fff}.gpcls-2{fill:#e6e6e6}.gpcls-2,.gpcls-3,.gpcls-4,.gpcls-5{fill-rule:evenodd}.gpcls-3{fill:red}.gpcls-4{fill:#0054a8}.gpcls-5{fill:#a6c3e1}</style></defs><path class="gpcls-1" d="M0 0h16v11H0z"/><path class="gpcls-2" d="M12 2h1v11h-1V2zm15 0h1v11h-1V2z" transform="translate(-12 -2)"/><path class="gpcls-3" d="M12 12h16v1H12v-1zm0-2h16v1H12v-1zm9-2h7v1h-7V8zm0-2h7v1h-7V6zm0-2h7v1h-7V4zm0-2h7v1h-7V2z" transform="translate(-12 -2)"/><path class="gpcls-4" d="M12 7h1v1h-1V7zm0-2h1v1h-1V5zm0-2h1v1h-1V3zm1-1h1v1h-1V2zm0 2h1v1h-1V4zm0 2h1v1h-1V6zm0 2h1v1h-1V8zm2-6h1v1h-1V2zm0 2h1v1h-1V4zm0 2h1v1h-1V6zm0 2h1v1h-1V8zm2-6h1v1h-1V2zm0 2h1v1h-1V4zm0 2h1v1h-1V6zm0 2h1v1h-1V8zm2-6h1v1h-1V2zm0 2h1v1h-1V4zm0 2h1v1h-1V6zm0 2h1v1h-1V8zm-5-1h1v1h-1V7zm0-2h1v1h-1V5zm0-2h1v1h-1V3zm2 4h1v1h-1V7zm0-2h1v1h-1V5zm0-2h1v1h-1V3zm2 4h1v1h-1V7zm0-2h1v1h-1V5zm0-2h1v1h-1V3zm2 4h1v1h-1V7zm0-2h1v1h-1V5zm0-2h1v1h-1V3z" transform="translate(-12 -2)"/><path class="gpcls-5" d="M20 2h1v1h-1V2zm0 2h1v1h-1V4zm0 2h1v1h-1V6zm0 2h1v1h-1V8zm-1-1h1v1h-1V7zm0-2h1v1h-1V5zm0-2h1v1h-1V3zm-2 4h1v1h-1V7zm0-2h1v1h-1V5zm0-2h1v1h-1V3zm-2 4h1v1h-1V7zm0-2h1v1h-1V5zm0-2h1v1h-1V3zm-2 4h1v1h-1V7zm0-2h1v1h-1V5zm0-2h1v1h-1V3zm5-1h1v1h-1V2zm0 2h1v1h-1V4zm0 2h1v1h-1V6zm0 2h1v1h-1V8zm-2-6h1v1h-1V2zm0 2h1v1h-1V4zm0 2h1v1h-1V6zm0 2h1v1h-1V8zm-2-6h1v1h-1V2zm0 2h1v1h-1V4zm0 2h1v1h-1V6zm0 2h1v1h-1V8zm-2-6h1v1h-1V2zm0 2h1v1h-1V4zm0 2h1v1h-1V6zm0 2h1v1h-1V8z" transform="translate(-12 -2)"/></svg>
        <svg xmlns="http://www.w3.org/2000/svg" version="1.1" viewBox="-2 -2 20 15" width="20" height="15" id="fr-flag" x="20" y = "8"><defs><style>.gqcls-1{fill:#0054a8}.gqcls-2{fill:#fff}.gqcls-3{fill:#e6e6e6;fill-rule:evenodd}.gqcls-4{fill:red}</style></defs><path class="gqcls-1" d="M0 0h5v11H0z"/><path class="gqcls-2" d="M5 0h6v11H5z"/><path class="gqcls-3" d="M17 54h6v1h-6v-1zm0-10h6v1h-6v-1z" transform="translate(-12 -44)"/><path class="gqcls-4" d="M11 0h5v11h-5z"/></svg>
<!--
  <svg id="github2" xmlns="http://www.w3.org/2000/svg" width="48" height="13" x="0" y="23" viewBox="-0.122 175.062 480.244 129.875"><g fill="#121110"><path d="M92.375 230.65H52.019a1.887 1.887 0 0 0-1.886 1.886v19.731a1.89 1.89 0 0 0 1.886 1.889h15.743v24.513s-3.535 1.206-13.308 1.206c-11.53 0-27.637-4.214-27.637-39.632 0-35.425 16.772-40.087 32.518-40.087 13.63 0 19.502 2.401 23.238 3.556 1.174.36 2.26-.808 2.26-1.851l4.502-19.063c0-.487-.165-1.075-.721-1.474-1.517-1.082-10.774-6.262-34.16-6.262-26.941 0-54.576 11.463-54.576 66.562 0 55.103 31.64 63.313 58.302 63.313 22.076 0 35.468-9.434 35.468-9.434.552-.306.612-1.077.612-1.431v-61.537c0-1.04-.844-1.885-1.885-1.885M300.354 181.664a1.88 1.88 0 0 0-1.873-1.896h-22.724a1.889 1.889 0 0 0-1.882 1.896l.006 43.913h-35.419v-43.913a1.882 1.882 0 0 0-1.875-1.896h-22.722a1.887 1.887 0 0 0-1.877 1.896v118.904c0 1.048.843 1.901 1.877 1.901h22.722c1.039 0 1.875-.854 1.875-1.901v-50.86h35.419l-.062 50.86c0 1.048.844 1.901 1.883 1.901h22.777c1.041 0 1.873-.854 1.875-1.901V181.664M135.254 197.268c0-8.183-6.56-14.795-14.653-14.795-8.085 0-14.65 6.612-14.65 14.795 0 8.173 6.565 14.802 14.65 14.802 8.093 0 14.653-6.629 14.653-14.802M133.629 275.486V220.6a1.89 1.89 0 0 0-1.88-1.895h-22.651c-1.039 0-1.969 1.072-1.969 2.115v78.634c0 2.312 1.44 2.998 3.304 2.998h20.408c2.239 0 2.788-1.1 2.788-3.034v-23.932M386.71 218.884h-22.549c-1.034 0-1.876.852-1.876 1.901v58.302s-5.729 4.192-13.859 4.192c-8.13 0-10.287-3.689-10.287-11.65v-50.844c0-1.049-.841-1.901-1.875-1.901h-22.886c-1.032 0-1.879.852-1.879 1.901v54.693c0 23.646 13.179 29.431 31.31 29.431 14.873 0 26.864-8.216 26.864-8.216s.571 4.329.829 4.843c.259.512.932 1.029 1.659 1.029l14.56-.064c1.032 0 1.879-.854 1.879-1.898l-.008-79.817c0-1.05-.843-1.902-1.882-1.902M439.445 283.207c-7.821-.238-13.126-3.788-13.126-3.788v-37.653s5.233-3.208 11.654-3.782c8.12-.727 15.944 1.726 15.944 21.095.001 20.426-3.53 24.457-14.472 24.128zm8.894-66.993c-12.807 0-21.518 5.714-21.518 5.714v-40.263c0-1.05-.839-1.897-1.875-1.897h-22.787a1.887 1.887 0 0 0-1.878 1.897v118.903c0 1.048.842 1.901 1.881 1.901h15.811c.711 0 1.25-.367 1.648-1.009.393-.639.96-5.482.96-5.482s9.318 8.83 26.957 8.83c20.708 0 32.584-10.504 32.584-47.154 0-36.651-18.967-41.44-31.783-41.44M198.936 218.695h-17.045l-.026-22.519c0-.852-.439-1.278-1.424-1.278h-23.228c-.903 0-1.388.398-1.388 1.265v23.271s-11.64 2.809-12.427 3.037a1.886 1.886 0 0 0-1.361 1.812v14.623c0 1.052.84 1.898 1.879 1.898h11.909v35.178c0 26.13 18.328 28.697 30.696 28.697 5.651 0 12.411-1.814 13.527-2.228.675-.248 1.067-.947 1.067-1.705l.019-16.086c0-1.05-.886-1.897-1.884-1.897-.993 0-3.534.404-6.15.404-8.372 0-11.209-3.893-11.209-8.932l-.001-33.432h17.046c1.039 0 1.88-.847 1.88-1.898v-18.317a1.884 1.884 0 0 0-1.88-1.893"/></g></svg>
-->
  <svg id="github" xmlns="http://www.w3.org/2000/svg" width="48" height="48" x="0" y="24" viewBox="0 0 999.937 999.937"><path fill="#fff" d="M0 499.968c0-138.012 48.825-255.843 146.476-353.493C244.125 48.825 361.956 0 499.969 0 637.98 0 755.811 48.825 853.462 146.475c97.649 97.65 146.475 215.481 146.475 353.493s-48.825 255.843-146.475 353.493c-97.65 97.65-215.481 146.476-353.493 146.476-138.013 0-255.844-48.825-353.493-146.476C48.825 755.812 0 637.979 0 499.968zm54.684 0c0 122.389 43.617 227.199 130.851 314.434 87.234 87.233 192.045 130.851 314.434 130.851 122.388 0 227.199-43.617 314.433-130.851 87.234-87.234 130.851-192.045 130.851-314.434 0-122.388-43.616-227.199-130.851-314.433C727.168 98.301 622.356 54.684 499.969 54.684c-122.389 0-227.199 43.617-314.434 130.851C98.301 272.769 54.684 377.58 54.684 499.968zm140.617 107.415c-2.604-2.604-2.604-5.208 0-7.812 5.207-5.208 11.718-7.161 19.529-5.859 7.812 1.302 12.369 2.604 13.671 3.906 9.114 3.906 19.205 12.694 30.271 26.366 11.066 13.671 19.855 23.11 26.366 28.318 31.248 26.04 63.146 27.993 95.696 5.859 2.604-9.114 6.836-16.926 12.694-23.437 5.858-6.51 11.393-11.066 16.601-13.671 5.209-2.604 14.323-6.51 27.343-11.718-42.967-3.906-77.795-11.393-104.486-22.46s-47.849-25.063-63.473-41.989c-20.832-23.436-33.527-54.033-38.084-91.791-4.558-37.758-1.628-72.261 8.789-103.509 7.812-19.53 18.879-37.106 33.2-52.731-10.416-32.55-8.463-69.657 5.859-111.321 41.664 2.604 79.422 16.926 113.274 42.966 65.1-16.926 132.804-17.577 203.111-1.953 9.114-6.51 23.111-14.647 41.989-24.413 18.879-9.765 42.641-15.299 71.285-16.601 5.208 14.322 8.789 31.248 10.742 50.778s.977 37.758-2.929 54.684c29.945 31.248 45.569 72.912 46.871 124.992 0 41.664-7.16 76.167-21.482 103.509s-39.711 50.127-76.167 68.354c-24.738 11.719-57.288 18.879-97.65 21.483 18.229 9.114 31.574 18.554 40.037 28.319 8.464 9.765 13.997 25.063 16.602 45.895v61.521l1.952 59.566c3.906 6.511 8.464 12.044 13.672 16.602 5.208 4.557 9.765 7.812 13.671 9.765 3.905 1.953 5.208 4.883 3.905 8.789-1.302 3.906-6.51 5.859-15.623 5.859-22.135 0-39.711-7.812-52.731-23.437-3.906-6.51-5.859-14.321-5.859-23.436v-93.744c0-10.416-2.604-17.903-7.812-22.46-5.208-4.558-10.416-7.487-15.624-8.789v123.039c0 22.134 2.604 36.456 7.812 42.966s8.463 13.021 9.766 19.53c1.302 1.302.325 2.278-2.93 2.929-3.254.65-8.788-.325-16.601-2.929-16.926-3.906-28.644-12.695-35.154-26.366-6.51-13.671-9.765-28.319-9.765-43.943V667.926H488.25v121.086c0 15.624-3.256 30.598-9.766 44.919-9.113 18.229-26.04 27.993-50.777 29.295-3.906-1.302-5.859-2.604-5.859-3.905 1.302-1.303 5.208-7.812 11.718-19.53 1.302-2.604 2.93-7.812 4.883-15.624 1.954-7.812 2.93-16.926 2.93-27.342v-123.04c-5.208 1.302-10.091 4.231-14.648 8.789s-6.836 12.044-6.836 22.46v93.744c0 9.113-1.953 16.926-5.859 23.436-11.718 15.624-29.295 23.437-52.73 23.437-9.114 0-14.322-1.953-15.624-5.859-1.303-2.604-.977-4.883.977-6.836s4.883-4.232 8.789-6.836c3.906-2.604 6.51-4.558 7.812-5.859 5.208-3.906 9.113-9.114 11.718-15.624 3.906-5.208 4.882-18.879 2.929-41.013s-2.279-36.456-.977-42.966c-33.853 11.718-68.355 5.858-103.51-17.577-10.416-10.416-20.832-25.39-31.248-44.919-7.812-14.323-23.436-31.249-46.871-50.779z"/></svg>
  <svg id="linkedin" xmlns="http://www.w3.org/2000/svg" width="48" height="48" x="64" y="24" viewBox="7.025 7.025 497.951 497.95">
    <linearGradient id="a" gradientUnits="userSpaceOnUse" x1="-974.482" y1="1306.773" x2="-622.378" y2="1658.877" gradientTransform="translate(1054.43 -1226.825)"><stop offset="0" stop-color="#2489be"/><stop offset="1" stop-color="#0575b3"/></linearGradient>
    <path d="M256 7.025C118.494 7.025 7.025 118.494 7.025 256S118.494 504.975 256 504.975 504.976 393.506 504.976 256C504.975 118.494 393.504 7.025 256 7.025zm-66.427 369.343h-54.665V199.761h54.665v176.607zM161.98 176.633c-17.853 0-32.326-14.591-32.326-32.587 0-17.998 14.475-32.588 32.326-32.588s32.324 14.59 32.324 32.588c.001 17.997-14.472 32.587-32.324 32.587zm232.45 199.735h-54.4v-92.704c0-25.426-9.658-39.619-29.763-39.619-21.881 0-33.312 14.782-33.312 39.619v92.704h-52.43V199.761h52.43v23.786s15.771-29.173 53.219-29.173c37.449 0 64.257 22.866 64.257 70.169l-.001 111.825z" fill="url(#a)"/>
  </svg>
  <svg id="whatsapp" xmlns="http://www.w3.org/2000/svg" xmlns:xlink="http://www.w3.org/1999/xlink" width="52" height="52" x="128" y="24" viewBox="0 0 1219.547 1225.016">
    <path fill="#E0E0E0" d="M1041.858 178.02C927.206 63.289 774.753.07 612.325 0 277.617 0 5.232 272.298 5.098 606.991c-.039 106.986 27.915 211.42 81.048 303.476L0 1225.016l321.898-84.406c88.689 48.368 188.547 73.855 290.166 73.896h.258.003c334.654 0 607.08-272.346 607.222-607.023.056-162.208-63.052-314.724-177.689-429.463zm-429.533 933.963h-.197c-90.578-.048-179.402-24.366-256.878-70.339l-18.438-10.93-191.021 50.083 51-186.176-12.013-19.087c-50.525-80.336-77.198-173.175-77.16-268.504.111-278.186 226.507-504.503 504.898-504.503 134.812.056 261.519 52.604 356.814 147.965 95.289 95.36 147.728 222.128 147.688 356.948-.118 278.195-226.522 504.543-504.693 504.543z"/>
      <linearGradient id="whatsapp-gradient" gradientUnits="userSpaceOnUse" x1="609.77" y1="1190.114" x2="609.77" y2="21.084"><stop offset="0" stop-color="#20b038"/><stop offset="1" stop-color="#60d66a"/></linearGradient>
      <path fill="url(#whatsapp-gradient)" d="M27.875 1190.114l82.211-300.18c-50.719-87.852-77.391-187.523-77.359-289.602.133-319.398 260.078-579.25 579.469-579.25 155.016.07 300.508 60.398 409.898 169.891 109.414 109.492 169.633 255.031 169.57 409.812-.133 319.406-260.094 579.281-579.445 579.281-.023 0 .016 0 0 0h-.258c-96.977-.031-192.266-24.375-276.898-70.5l-307.188 80.548z"/><image overflow="visible" opacity=".08" width="682" height="639" xlink:href="FCC0802E2AF8A915.png" transform="translate(270.984 291.372)"/><path fill-rule="evenodd" clip-rule="evenodd" fill="#FFF" d="M462.273 349.294c-11.234-24.977-23.062-25.477-33.75-25.914-8.742-.375-18.75-.352-28.742-.352-10 0-26.25 3.758-39.992 18.766-13.75 15.008-52.5 51.289-52.5 125.078 0 73.797 53.75 145.102 61.242 155.117 7.5 10 103.758 166.266 256.203 226.383 126.695 49.961 152.477 40.023 179.977 37.523s88.734-36.273 101.234-71.297c12.5-35.016 12.5-65.031 8.75-71.305-3.75-6.25-13.75-10-28.75-17.5s-88.734-43.789-102.484-48.789-23.75-7.5-33.75 7.516c-10 15-38.727 48.773-47.477 58.773-8.75 10.023-17.5 11.273-32.5 3.773-15-7.523-63.305-23.344-120.609-74.438-44.586-39.75-74.688-88.844-83.438-103.859-8.75-15-.938-23.125 6.586-30.602 6.734-6.719 15-17.508 22.5-26.266 7.484-8.758 9.984-15.008 14.984-25.008 5-10.016 2.5-18.773-1.25-26.273s-32.898-81.67-46.234-111.326z"/><path fill="#FFF" d="M1036.898 176.091C923.562 62.677 772.859.185 612.297.114 281.43.114 12.172 269.286 12.039 600.137 12 705.896 39.633 809.13 92.156 900.13L7 1211.067l318.203-83.438c87.672 47.812 186.383 73.008 286.836 73.047h.255.003c330.812 0 600.109-269.219 600.25-600.055.055-160.343-62.328-311.108-175.649-424.53zm-424.601 923.242h-.195c-89.539-.047-177.344-24.086-253.93-69.531l-18.227-10.805-188.828 49.508 50.414-184.039-11.875-18.867c-49.945-79.414-76.312-171.188-76.273-265.422.109-274.992 223.906-498.711 499.102-498.711 133.266.055 258.516 52 352.719 146.266 94.195 94.266 146.031 219.578 145.992 352.852-.118 274.999-223.923 498.749-498.899 498.749z"/>
    </svg>
</svg>
