<?xml version="1.0" encoding="utf-8"?>
<!DOCTYPE svg PUBLIC "-//W3C//DTD SVG 1.1//EN" "http://www.w3.org/Graphics/SVG/1.1/DTD/svg11.dtd">
<svg width="570" height="569" viewBox="0 0 570 569" xmlns="http://www.w3.org/2000/svg" xmlns:xlink="http://www.w3.org/1999/xlink">
	<svg xmlns='http://www.w3.org/2000/svg' version='1.1' width='9' height='8' viewBox='-16 -12 32 24' id="arrow-down" x="0" y="0"><polygon points='-16,-9 16,-9 0,12' style='fill:#aaa;'></polygon></svg>
	<svg xmlns='http://www.w3.org/2000/svg' version='1.1' width='9' height='8' viewBox='-16 -12 32 24' id="arrow-up" x="9" y="0"><polygon points='-16,9 16,9 0,-12' style='fill:#aaa;'></polygon></svg>
	<svg xmlns="http://www.w3.org/2000/svg" version="1.1" viewBox="-2 -2 20 15" width="20" height="15" id="us-flag" x="0" y="8"><defs><style>.gpcls-1{fill:#fff}.gpcls-2{fill:#e6e6e6}.gpcls-2,.gpcls-3,.gpcls-4,.gpcls-5{fill-rule:evenodd}.gpcls-3{fill:red}.gpcls-4{fill:#0054a8}.gpcls-5{fill:#a6c3e1}</style></defs><path class="gpcls-1" d="M0 0h16v11H0z"/><path class="gpcls-2" d="M12 2h1v11h-1V2zm15 0h1v11h-1V2z" transform="translate(-12 -2)"/><path class="gpcls-3" d="M12 12h16v1H12v-1zm0-2h16v1H12v-1zm9-2h7v1h-7V8zm0-2h7v1h-7V6zm0-2h7v1h-7V4zm0-2h7v1h-7V2z" transform="translate(-12 -2)"/><path class="gpcls-4" d="M12 7h1v1h-1V7zm0-2h1v1h-1V5zm0-2h1v1h-1V3zm1-1h1v1h-1V2zm0 2h1v1h-1V4zm0 2h1v1h-1V6zm0 2h1v1h-1V8zm2-6h1v1h-1V2zm0 2h1v1h-1V4zm0 2h1v1h-1V6zm0 2h1v1h-1V8zm2-6h1v1h-1V2zm0 2h1v1h-1V4zm0 2h1v1h-1V6zm0 2h1v1h-1V8zm2-6h1v1h-1V2zm0 2h1v1h-1V4zm0 2h1v1h-1V6zm0 2h1v1h-1V8zm-5-1h1v1h-1V7zm0-2h1v1h-1V5zm0-2h1v1h-1V3zm2 4h1v1h-1V7zm0-2h1v1h-1V5zm0-2h1v1h-1V3zm2 4h1v1h-1V7zm0-2h1v1h-1V5zm0-2h1v1h-1V3zm2 4h1v1h-1V7zm0-2h1v1h-1V5zm0-2h1v1h-1V3z" transform="translate(-12 -2)"/><path class="gpcls-5" d="M20 2h1v1h-1V2zm0 2h1v1h-1V4zm0 2h1v1h-1V6zm0 2h1v1h-1V8zm-1-1h1v1h-1V7zm0-2h1v1h-1V5zm0-2h1v1h-1V3zm-2 4h1v1h-1V7zm0-2h1v1h-1V5zm0-2h1v1h-1V3zm-2 4h1v1h-1V7zm0-2h1v1h-1V5zm0-2h1v1h-1V3zm-2 4h1v1h-1V7zm0-2h1v1h-1V5zm0-2h1v1h-1V3zm5-1h1v1h-1V2zm0 2h1v1h-1V4zm0 2h1v1h-1V6zm0 2h1v1h-1V8zm-2-6h1v1h-1V2zm0 2h1v1h-1V4zm0 2h1v1h-1V6zm0 2h1v1h-1V8zm-2-6h1v1h-1V2zm0 2h1v1h-1V4zm0 2h1v1h-1V6zm0 2h1v1h-1V8zm-2-6h1v1h-1V2zm0 2h1v1h-1V4zm0 2h1v1h-1V6zm0 2h1v1h-1V8z" transform="translate(-12 -2)"/></svg>
	<svg xmlns="http://www.w3.org/2000/svg" version="1.1" viewBox="-2 -2 20 15" width="20" height="15" id="fr-flag" x="20" y = "8"><defs><style>.gqcls-1{fill:#0054a8}.gqcls-2{fill:#fff}.gqcls-3{fill:#e6e6e6;fill-rule:evenodd}.gqcls-4{fill:red}</style></defs><path class="gqcls-1" d="M0 0h5v11H0z"/><path class="gqcls-2" d="M5 0h6v11H5z"/><path class="gqcls-3" d="M17 54h6v1h-6v-1zm0-10h6v1h-6v-1z" transform="translate(-12 -44)"/><path class="gqcls-4" d="M11 0h5v11h-5z"/></svg>
</svg>